<svg width="34" height="34" viewBox="0 0 34 34" fill="none" xmlns="http://www.w3.org/2000/svg">
<path d="M16.6763 10.0097C16.2343 10.0097 15.8104 10.1853 15.4978 10.4978C15.1853 10.8104 15.0097 11.2343 15.0097 11.6763C15.0097 12.1184 15.1853 12.5423 15.4978 12.8548C15.8104 13.1674 16.2343 13.343 16.6763 13.343C17.5604 13.343 18.4082 13.6942 19.0334 14.3193C19.6585 14.9444 20.0097 15.7923 20.0097 16.6763C20.0097 17.5604 19.6585 18.4082 19.0334 19.0333C18.4082 19.6585 17.5604 20.0097 16.6763 20.0097C16.2343 20.0097 15.8104 20.1853 15.4978 20.4978C15.1853 20.8104 15.0097 21.2343 15.0097 21.6763C15.0097 22.1184 15.1853 22.5423 15.4978 22.8548C15.8104 23.1674 16.2343 23.343 16.6763 23.343C18.4444 23.343 20.1401 22.6406 21.3904 21.3904C22.6406 20.1401 23.343 18.4444 23.343 16.6763C23.343 14.9082 22.6406 13.2125 21.3904 11.9623C20.1401 10.712 18.4444 10.0097 16.6763 10.0097ZM32.8597 15.493L28.943 11.6763V6.07633C28.943 5.6343 28.7674 5.21038 28.4548 4.89782C28.1423 4.58526 27.7184 4.40966 27.2763 4.40966H21.7597L17.8597 0.492997C17.7047 0.336783 17.5204 0.212793 17.3173 0.128178C17.1142 0.0435637 16.8964 0 16.6763 0C16.4563 0 16.2385 0.0435637 16.0354 0.128178C15.8323 0.212793 15.6479 0.336783 15.493 0.492997L11.6763 4.40966H6.07633C5.6343 4.40966 5.21038 4.58526 4.89782 4.89782C4.58526 5.21038 4.40966 5.6343 4.40966 6.07633V11.6763L0.492997 15.493C0.336783 15.6479 0.212793 15.8323 0.128178 16.0354C0.0435637 16.2385 0 16.4563 0 16.6763C0 16.8963 0.0435637 17.1142 0.128178 17.3173C0.212793 17.5204 0.336783 17.7047 0.492997 17.8597L4.40966 21.7597V27.2763C4.40966 27.7184 4.58526 28.1423 4.89782 28.4548C5.21038 28.7674 5.6343 28.943 6.07633 28.943H11.6763L15.5763 32.8597C15.7313 33.0159 15.9156 33.1399 16.1187 33.2245C16.3218 33.3091 16.5396 33.3527 16.7597 33.3527C16.9797 33.3527 17.1975 33.3091 17.4006 33.2245C17.6037 33.1399 17.7881 33.0159 17.943 32.8597L21.843 28.943H27.3597C27.8017 28.943 28.2256 28.7674 28.5382 28.4548C28.8507 28.1423 29.0263 27.7184 29.0263 27.2763V21.7597L32.943 17.8597C33.0939 17.6993 33.2115 17.5106 33.289 17.3045C33.3666 17.0984 33.4025 16.879 33.3948 16.659C33.387 16.4389 33.3357 16.2226 33.2439 16.0224C33.1521 15.8223 33.0215 15.6424 32.8597 15.493ZM26.1097 19.893C25.9522 20.0474 25.8269 20.2314 25.7411 20.4346C25.6552 20.6377 25.6106 20.8558 25.6097 21.0763V25.6097H21.0763C20.8558 25.6106 20.6377 25.6552 20.4346 25.7411C20.2314 25.8269 20.0474 25.9522 19.893 26.1097L16.6763 29.3263L13.4597 26.1097C13.3053 25.9522 13.1212 25.8269 12.9181 25.7411C12.715 25.6552 12.4968 25.6106 12.2763 25.6097H7.743V21.0763C7.74208 20.8558 7.69742 20.6377 7.61159 20.4346C7.52576 20.2314 7.40048 20.0474 7.243 19.893L4.02633 16.6763L7.243 13.4597C7.40048 13.3053 7.52576 13.1212 7.61159 12.9181C7.69742 12.715 7.74208 12.4968 7.743 12.2763V7.743H12.2763C12.4968 7.74208 12.715 7.69742 12.9181 7.61159C13.1212 7.52576 13.3053 7.40048 13.4597 7.243L16.6763 4.02633L19.893 7.243C20.0474 7.40048 20.2314 7.52576 20.4346 7.61159C20.6377 7.69742 20.8558 7.74208 21.0763 7.743H25.6097V12.2763C25.6106 12.4968 25.6552 12.715 25.7411 12.9181C25.8269 13.1212 25.9522 13.3053 26.1097 13.4597L29.3263 16.6763L26.1097 19.893Z" fill="#A3ABB2"/>
</svg>
